<svg width="14" height="14" viewBox="0 0 14 14" fill="none" xmlns="http://www.w3.org/2000/svg">
<path fill-rule="evenodd" clip-rule="evenodd" d="M0.608515 3.76258C1.22307 3.06263 2.25703 2.73975 3.7208 2.73975H10.2746C11.7386 2.73975 12.7721 3.06273 13.3873 3.76216C14.0025 4.46151 14.0558 5.37532 13.9654 6.19201L13.7429 8.42996C13.7097 8.76372 13.4122 9.00739 13.0785 8.97421C12.7447 8.94103 12.5011 8.64357 12.5342 8.30981L12.7578 6.0613C12.8372 5.34693 12.7456 4.8717 12.4753 4.56437C12.2041 4.25609 11.609 3.95436 10.2746 3.95436H3.7208C2.38611 3.95436 1.79146 4.25619 1.52125 4.56395C1.25215 4.87045 1.16137 5.34491 1.24382 6.05876L1.24504 6.06929L1.73606 11.0878C1.80012 11.657 1.929 12.0238 2.21772 12.2765C2.51875 12.5399 3.11619 12.7854 4.37617 12.7854H9.61919C10.8792 12.7854 11.4766 12.5399 11.7776 12.2765C12.067 12.0232 12.1958 11.6552 12.2598 11.0838C12.297 10.7504 12.5975 10.5105 12.9308 10.5477C13.2641 10.585 13.5041 10.8854 13.4668 11.2188C13.3931 11.8779 13.2172 12.6307 12.5776 13.1905C11.9496 13.7401 10.9938 14 9.61919 14H4.37617C3.00154 14 2.04574 13.7401 1.41778 13.1905C0.77818 12.6307 0.602235 11.8779 0.528515 11.2188L0.527582 11.2104L0.0366104 6.19274C-0.057044 5.37599 -0.00578851 4.46224 0.608515 3.76258Z" fill="#FD7173"/>
<path fill-rule="evenodd" clip-rule="evenodd" d="M4.89658 2.02379C4.86842 2.23948 4.86745 2.48632 4.86745 2.79909V3.34703C4.86745 3.68244 4.59555 3.95434 4.26014 3.95434C3.92473 3.95434 3.65283 3.68244 3.65283 3.34703V2.79909C3.65283 2.79233 3.65283 2.78556 3.65283 2.77876C3.65281 2.49049 3.65279 2.16837 3.69219 1.86655C3.73324 1.55215 3.82209 1.21064 4.03452 0.903281C4.48399 0.252953 5.29895 0 6.45192 0H7.54781C8.70078 0 9.51574 0.252953 9.96521 0.903281C10.1776 1.21064 10.2665 1.55215 10.3075 1.86655C10.3469 2.16837 10.3469 2.49049 10.3469 2.77876L10.3469 3.34703C10.3469 3.68244 10.075 3.95434 9.73959 3.95434C9.40419 3.95434 9.13229 3.68244 9.13229 3.34703V2.79909C9.13229 2.48632 9.13131 2.23948 9.10315 2.02379C9.07571 1.81358 9.02757 1.68291 8.96603 1.59386C8.86755 1.45138 8.58662 1.21461 7.54781 1.21461H6.45192C5.41311 1.21461 5.13218 1.45138 5.03371 1.59386C4.97216 1.68291 4.92403 1.81358 4.89658 2.02379Z" fill="#FD7173"/>
<path fill-rule="evenodd" clip-rule="evenodd" d="M6.69414 7.60736C6.69411 7.63173 6.69411 7.65754 6.69411 7.68499V8.39047C6.69411 8.58207 6.69512 8.7314 6.70706 8.86016C6.71907 8.98957 6.73906 9.05512 6.75347 9.08564C6.76003 9.09951 6.76073 9.0986 6.76114 9.09807C6.76123 9.09796 6.76103 9.09801 6.76114 9.09807C6.77365 9.10473 6.83672 9.13248 7.00004 9.13248C7.16408 9.13248 7.22673 9.10429 7.23888 9.09777C7.23892 9.09774 7.23884 9.09768 7.23888 9.09777C7.23915 9.09836 7.23998 9.10007 7.24714 9.08474C7.26185 9.05322 7.28174 8.9865 7.29352 8.85592C7.30525 8.72591 7.30598 8.57598 7.30598 8.38362V7.68499C7.30598 7.65754 7.30598 7.63173 7.30595 7.60736H6.69414ZM6.52124 6.39273C6.52893 6.39274 6.53633 6.39275 6.54342 6.39275H7.45666C7.46375 6.39275 7.47116 6.39274 7.47885 6.39273C7.57113 6.39258 7.7044 6.39237 7.82049 6.41172C7.97549 6.43755 8.20482 6.51376 8.36152 6.7488C8.48431 6.93299 8.5039 7.13748 8.5118 7.24415C8.52062 7.3633 8.52061 7.5112 8.52059 7.66548C8.52059 7.67197 8.52059 7.67848 8.52059 7.68499V8.3884C8.52059 8.56818 8.52059 8.77249 8.50322 8.96504C8.48575 9.15873 8.44771 9.38439 8.3477 9.59859C8.24125 9.82659 8.06939 10.0305 7.81329 10.168C7.56902 10.2991 7.29034 10.3471 7.00004 10.3471C6.71131 10.3471 6.43393 10.2996 6.19044 10.17C5.9351 10.034 5.76265 9.83177 5.65529 9.60455C5.55441 9.39105 5.51561 9.16594 5.49765 8.97236C5.47963 8.77813 5.47949 8.57216 5.47949 8.39047V7.68499C5.47949 7.67848 5.47949 7.67197 5.47949 7.66548C5.47948 7.5112 5.47946 7.3633 5.48829 7.24415C5.49619 7.13748 5.51577 6.93299 5.63857 6.7488C5.79526 6.51376 6.0246 6.43755 6.1796 6.41172C6.29569 6.39237 6.42895 6.39258 6.52124 6.39273Z" fill="#FD7173"/>
<path fill-rule="evenodd" clip-rule="evenodd" d="M13.9105 5.76908C14.086 6.0549 13.9966 6.42888 13.7108 6.6044C11.9724 7.67189 9.99338 8.30295 7.97772 8.51727C7.64419 8.55273 7.34507 8.31111 7.30961 7.97758C7.27414 7.64405 7.51577 7.34493 7.8493 7.30947C9.70149 7.11253 11.5043 6.53399 13.0752 5.56937C13.361 5.39385 13.735 5.48327 13.9105 5.76908Z" fill="#FD7173"/>
<path fill-rule="evenodd" clip-rule="evenodd" d="M0.0889454 5.77061C0.263621 5.48428 0.637341 5.39376 0.923672 5.56844C2.51399 6.53861 4.31193 7.12591 6.14715 7.30907C6.4809 7.34237 6.72446 7.63993 6.69115 7.97368C6.65784 8.30743 6.36029 8.55098 6.02654 8.51767C4.01575 8.317 2.04193 7.67342 0.291115 6.60533C0.00478405 6.43066 -0.0857304 6.05694 0.0889454 5.77061Z" fill="#FD7173"/>
</svg>
